<?xml version="1.0" encoding="UTF-8"?>
<mxfile>
  <diagram id="CAPS_Flowchart" name="Page-1">
    <mxGraphModel dx="700" dy="300" grid="1" gridSize="10" guides="1" tooltips="1" connect="1" arrows="1"
      fold="1" page="1" pageScale="1" pageWidth="827" pageHeight="1169" math="0" shadow="0">
      <root>
        <mxCell id="0" />
        <mxCell id="1" parent="0" />

        <!-- Start -->
        <mxCell id="2" value="Start" style="ellipse;fillColor=#D5E8D4;strokeColor=#82B366;" vertex="1" parent="1">
          <mxGeometry x="300" y="20" width="120" height="50" as="geometry" />
        </mxCell>

        <!-- Step 1 -->
        <mxCell id="3" value="Step 1: Initialize Clusters (C) & Set Pilot Sequences (Hi)" 
          style="rounded=1;fillColor=#FFF2CC;strokeColor=#D6B656;" vertex="1" parent="1">
          <mxGeometry x="200" y="100" width="350" height="50" as="geometry" />
        </mxCell>

        <!-- Step 2 -->
        <mxCell id="4" value="Step 2: Calculate Distance (Xi) from Cluster Centroids" 
          style="rounded=1;fillColor=#D9EAD3;strokeColor=#6AA84F;" vertex="1" parent="1">
          <mxGeometry x="200" y="180" width="350" height="50" as="geometry" />
        </mxCell>

        <!-- Step 3 -->
        <mxCell id="5" value="Step 3: Sort Distances & Assign Users (Ui) to Clusters" 
          style="rounded=1;fillColor=#CFE2F3;strokeColor=#3D85C6;" vertex="1" parent="1">
          <mxGeometry x="200" y="260" width="350" height="50" as="geometry" />
        </mxCell>

        <!-- Step 4 -->
        <mxCell id="6" value="Step 4: Create Subset (Mi) of APs in Assigned Cluster" 
          style="rounded=1;fillColor=#F4CCCC;strokeColor=#CC4125;" vertex="1" parent="1">
          <mxGeometry x="200" y="340" width="350" height="50" as="geometry" />
        </mxCell>

        <!-- Step 5 -->
        <mxCell id="7" value="Step 5: Compute Spectral Efficiency (SE) & Rank APs" 
          style="rounded=1;fillColor=#EAD1DC;strokeColor=#A64D79;" vertex="1" parent="1">
          <mxGeometry x="200" y="420" width="350" height="50" as="geometry" />
        </mxCell>

        <!-- Step 6 -->
        <mxCell id="8" value="Step 6: Assign Top-Ranked AP & Repeat Until All Users Assigned" 
          style="rounded=1;fillColor=#D9D2E9;strokeColor=#674EA7;" vertex="1" parent="1">
          <mxGeometry x="200" y="500" width="350" height="50" as="geometry" />
        </mxCell>

        <!-- End -->
        <mxCell id="9" value="End" style="ellipse;fillColor=#D5E8D4;strokeColor=#82B366;" vertex="1" parent="1">
          <mxGeometry x="300" y="580" width="120" height="50" as="geometry" />
        </mxCell>

        <!-- Arrows (Connections) -->
        <mxCell id="10" edge="1" source="2" target="3" parent="1">
          <mxGeometry relative="1" as="geometry" />
        </mxCell>

        <mxCell id="11" edge="1" source="3" target="4" parent="1">
          <mxGeometry relative="1" as="geometry" />
        </mxCell>

        <mxCell id="12" edge="1" source="4" target="5" parent="1">
          <mxGeometry relative="1" as="geometry" />
        </mxCell>

        <mxCell id="13" edge="1" source="5" target="6" parent="1">
          <mxGeometry relative="1" as="geometry" />
        </mxCell>

        <mxCell id="14" edge="1" source="6" target="7" parent="1">
          <mxGeometry relative="1" as="geometry" />
        </mxCell>

        <mxCell id="15" edge="1" source="7" target="8" parent="1">
          <mxGeometry relative="1" as="geometry" />
        </mxCell>

        <mxCell id="16" edge="1" source="8" target="9" parent="1">
          <mxGeometry relative="1" as="geometry" />
        </mxCell>

      </root>
    </mxGraphModel>
  </diagram>
</mxfile>
